<svg xmlns="http://www.w3.org/2000/svg" xmlns:xlink="http://www.w3.org/1999/xlink" width="500" zoomAndPan="magnify" viewBox="0 0 375 374.999991" height="500" preserveAspectRatio="xMidYMid meet" version="1.0"><defs><g/><clipPath id="id1"><path d="M 68.019531 68.019531 L 307.269531 68.019531 L 307.269531 307.269531 L 68.019531 307.269531 Z M 68.019531 68.019531 " clip-rule="nonzero"/></clipPath><clipPath id="id2"><path d="M 145.304688 133.777344 L 230 133.777344 L 230 241.027344 L 145.304688 241.027344 Z M 145.304688 133.777344 " clip-rule="nonzero"/></clipPath></defs><g clip-path="url(#id1)"><path fill="rgb(21.569824%, 20.388794%, 22.749329%)" d="M 211.394531 307.242188 L 163.792969 307.242188 L 119.8125 289.042969 L 86.171875 255.402344 L 86.125 255.304688 L 68.019531 211.421875 L 68.019531 163.816406 L 68.066406 163.722656 L 86.21875 119.835938 L 119.859375 86.195312 L 163.839844 68.042969 L 211.445312 68.042969 L 211.539062 68.089844 L 255.425781 86.242188 L 289.066406 119.882812 L 289.113281 119.980469 L 307.269531 163.867188 L 307.269531 211.46875 L 307.21875 211.5625 L 289.066406 255.449219 L 255.425781 289.089844 L 255.328125 289.136719 Z M 164.03125 306.292969 L 211.253906 306.292969 L 254.851562 288.230469 L 288.207031 254.875 L 306.265625 211.277344 L 306.265625 164.054688 L 288.207031 120.457031 L 254.851562 87.101562 L 211.207031 68.996094 L 163.984375 68.996094 L 120.433594 87.054688 L 87.078125 120.410156 L 68.972656 164.054688 L 68.972656 211.277344 L 87.03125 254.828125 L 120.386719 288.183594 Z M 164.03125 306.292969 " fill-opacity="1" fill-rule="nonzero"/></g><path fill="rgb(85.488892%, 94.119263%, 94.509888%)" d="M 187.5 119.25 C 149.804688 119.25 119.25 149.804688 119.25 187.5 C 119.25 225.191406 149.804688 255.75 187.5 255.75 C 225.191406 255.75 255.75 225.191406 255.75 187.5 C 255.75 149.804688 225.191406 119.25 187.5 119.25 " fill-opacity="1" fill-rule="nonzero"/><g clip-path="url(#id2)"><path fill="rgb(21.569824%, 20.388794%, 22.749329%)" d="M 222.882812 228.5625 C 219.945312 225.121094 219.324219 220.300781 219.777344 215.941406 C 220.324219 210.707031 222.546875 205.820312 224.304688 200.910156 C 225.195312 198.410156 226.007812 195.863281 226.40625 193.242188 C 226.785156 190.664062 226.875 188.082031 226.667969 185.484375 C 226.261719 180.207031 224.820312 175.027344 222.851562 170.109375 C 222.613281 169.507812 222.363281 168.910156 222.109375 168.316406 C 222.085938 168.269531 222.058594 168.230469 222.023438 168.195312 C 222.320312 167.757812 222.585938 167.296875 222.808594 166.816406 C 224.136719 163.984375 224.058594 160.761719 223.769531 157.71875 C 223.539062 154.882812 223.144531 152.070312 222.582031 149.277344 C 222.003906 146.59375 221.125 143.933594 219.6875 141.582031 C 218.972656 140.40625 218.121094 139.335938 217.132812 138.378906 C 216.144531 137.417969 215.054688 136.597656 213.855469 135.914062 C 212.65625 135.230469 211.390625 134.710938 210.058594 134.347656 C 208.726562 133.984375 207.371094 133.796875 205.988281 133.777344 C 203.21875 133.765625 200.621094 134.421875 198.191406 135.746094 C 197 136.390625 195.90625 137.171875 194.90625 138.085938 C 194.421875 138.535156 193.972656 139.007812 193.550781 139.515625 C 193.085938 140.050781 192.699219 140.628906 192.28125 141.195312 C 191.929688 141.710938 191.476562 142.117188 190.925781 142.410156 L 190.832031 142.453125 L 190.671875 142.511719 C 190.539062 142.554688 190.40625 142.589844 190.269531 142.617188 L 190.1875 142.632812 L 190.128906 142.632812 L 190.011719 142.644531 C 189.875 142.660156 189.734375 142.664062 189.59375 142.660156 C 189.074219 142.652344 188.566406 142.574219 188.066406 142.429688 C 187.484375 142.285156 186.910156 142.097656 186.339844 141.917969 C 185.1875 141.550781 184 141.179688 182.777344 141.167969 C 181.605469 141.136719 180.566406 141.496094 179.660156 142.238281 C 177.960938 143.632812 177.394531 146.078125 177.6875 148.167969 C 178.042969 150.691406 179.875 152.738281 181.824219 154.25 C 182.917969 155.078125 184.050781 155.84375 185.230469 156.542969 C 186.648438 157.410156 188.070312 158.277344 189.496094 159.140625 L 193.867188 161.796875 C 194.414062 162.128906 195.09375 162.457031 195.445312 162.972656 C 195.796875 163.488281 195.746094 164.167969 195.632812 164.773438 C 195.417969 165.800781 195.101562 166.796875 194.679688 167.757812 L 194.679688 167.777344 L 194.652344 167.84375 L 194.566406 168.039062 C 194.503906 168.183594 194.4375 168.324219 194.375 168.460938 C 194.25 168.730469 194.121094 169 193.988281 169.261719 C 193.714844 169.8125 193.425781 170.359375 193.121094 170.894531 C 191.910156 173.050781 190.511719 175.082031 188.929688 176.988281 C 188.292969 177.761719 187.609375 178.488281 186.875 179.167969 C 186.765625 179.28125 186.710938 179.414062 186.710938 179.570312 C 186.710938 179.726562 186.769531 179.859375 186.878906 179.972656 C 186.992188 180.082031 187.125 180.136719 187.28125 180.140625 C 187.441406 180.140625 187.574219 180.089844 187.6875 179.980469 C 189.335938 178.476562 190.722656 176.679688 191.988281 174.855469 C 193.40625 172.859375 194.613281 170.742188 195.613281 168.507812 C 196.050781 167.546875 196.394531 166.558594 196.652344 165.539062 C 196.761719 165.117188 196.832031 164.691406 196.863281 164.253906 C 199.828125 164.457031 202.796875 164.460938 205.765625 164.269531 C 206.613281 164.214844 207.460938 164.144531 208.304688 164.054688 C 208.5625 165.839844 209.257812 167.4375 210.382812 168.851562 C 212.027344 170.855469 214.597656 172.105469 217.214844 171.605469 C 218.785156 171.304688 220.164062 170.398438 221.234375 169.214844 C 223.222656 173.902344 224.761719 178.855469 225.355469 183.902344 C 225.667969 186.460938 225.703125 189.023438 225.457031 191.589844 C 225.195312 194.210938 224.511719 196.742188 223.671875 199.234375 C 221.992188 204.203125 219.707031 209.039062 218.847656 214.246094 C 218.125 218.648438 218.363281 223.457031 220.65625 227.394531 C 221.742188 229.265625 223.320312 230.691406 224.867188 232.171875 C 226.203125 233.449219 227.769531 234.925781 228.085938 236.835938 C 228.136719 237.152344 228.144531 237.46875 228.117188 237.789062 C 225.617188 238.457031 223.085938 238.96875 220.527344 239.324219 C 219.199219 239.507812 217.867188 239.640625 216.535156 239.734375 C 215.269531 239.820312 213.957031 239.949219 212.691406 239.855469 C 212.21875 239.851562 211.792969 239.710938 211.414062 239.429688 C 211.023438 239.09375 210.902344 238.546875 210.835938 238.050781 C 210.644531 236.738281 210.558594 235.398438 210.421875 234.078125 L 209.5625 225.722656 C 209.011719 220.378906 208.507812 215.03125 207.90625 209.695312 C 207.445312 205.65625 206.835938 201.574219 205.398438 197.757812 C 204.015625 194.054688 201.785156 190.644531 198.40625 188.449219 C 194.710938 186.046875 190.09375 185.527344 185.828125 186.332031 C 181.398438 187.164062 177.445312 189.445312 174.203125 192.515625 C 170.90625 195.636719 168.367188 199.480469 166.289062 203.480469 C 163.960938 207.984375 162.105469 212.675781 160.722656 217.546875 C 159.320312 222.484375 158.417969 227.511719 158.011719 232.625 C 157.933594 233.632812 157.878906 234.636719 157.839844 235.640625 C 156.242188 235.148438 154.746094 234.332031 153.707031 232.984375 C 152.667969 231.636719 152.136719 230 151.953125 228.375 C 151.722656 226.367188 152.007812 224.355469 152.445312 222.40625 C 152.921875 220.285156 153.539062 218.203125 154.023438 216.082031 C 155.003906 211.777344 155.648438 207.421875 155.964844 203.019531 C 156.117188 200.894531 156.214844 198.753906 156.167969 196.625 C 156.125 194.710938 155.921875 192.742188 155.191406 190.953125 C 154.542969 189.261719 153.449219 187.933594 151.90625 186.976562 C 150.519531 186.140625 148.804688 185.730469 147.210938 186.140625 C 146.816406 186.242188 146.4375 186.394531 146.078125 186.585938 C 145.425781 186.9375 146.007812 187.929688 146.664062 187.578125 C 147.300781 187.238281 147.980469 187.085938 148.703125 187.121094 C 149.429688 187.160156 150.125 187.339844 150.78125 187.660156 C 152.257812 188.390625 153.324219 189.507812 153.976562 191.011719 C 154.75 192.691406 154.960938 194.582031 155.011719 196.40625 C 155.074219 198.492188 154.976562 200.59375 154.835938 202.679688 C 154.542969 207.011719 153.921875 211.292969 152.964844 215.53125 C 152.492188 217.636719 151.882812 219.707031 151.398438 221.8125 C 150.9375 223.800781 150.601562 225.863281 150.757812 227.910156 C 150.898438 229.675781 151.363281 231.453125 152.3125 232.972656 C 153.363281 234.59375 154.796875 235.742188 156.613281 236.414062 C 157.054688 236.585938 157.503906 236.734375 157.957031 236.855469 C 158.035156 236.875 158.109375 236.882812 158.191406 236.871094 C 158.253906 236.898438 158.324219 236.914062 158.394531 236.921875 C 167.242188 237.800781 176.105469 238.039062 184.988281 237.640625 C 186.074219 237.589844 187.160156 237.53125 188.238281 237.460938 C 189.070312 237.425781 189.894531 237.324219 190.707031 237.15625 C 192.324219 236.785156 194.046875 235.746094 194.4375 234.027344 C 194.515625 233.683594 194.53125 233.335938 194.488281 232.984375 C 194.445312 232.632812 194.339844 232.300781 194.179688 231.984375 C 194.019531 231.671875 193.808594 231.390625 193.546875 231.148438 C 193.285156 230.910156 192.992188 230.71875 192.664062 230.578125 C 191.621094 230.121094 190.460938 230.050781 189.382812 229.6875 C 188.957031 229.558594 188.59375 229.332031 188.292969 229 C 187.816406 228.410156 187.84375 227.625 187.992188 226.917969 C 188.40625 224.914062 189.054688 222.972656 189.671875 221.027344 C 190.789062 217.515625 191.773438 213.914062 191.1875 210.214844 C 190.851562 208.054688 189.894531 205.789062 188.277344 204.234375 C 188.683594 203.503906 189.039062 202.75 189.351562 201.976562 C 189.691406 201.140625 189.992188 200.292969 190.285156 199.449219 C 190.53125 198.75 189.417969 198.449219 189.175781 199.144531 C 188.675781 200.566406 188.140625 202.113281 187.398438 203.523438 C 187.011719 203.25 186.597656 203.019531 186.160156 202.835938 C 183.652344 201.792969 180.375 202.375 178.457031 204.320312 C 177.507812 205.28125 176.570312 206.984375 177.597656 208.207031 C 178.09375 208.800781 179.023438 209.089844 179.765625 209.210938 C 180.628906 209.355469 181.488281 209.332031 182.347656 209.144531 C 184.714844 208.644531 186.417969 207.117188 187.671875 205.226562 C 189.007812 206.605469 189.765625 208.609375 190.066406 210.425781 C 190.628906 213.824219 189.6875 217.195312 188.667969 220.414062 C 188.09375 222.238281 187.480469 224.050781 187.050781 225.921875 C 186.839844 226.839844 186.617188 227.757812 186.875 228.675781 C 187.027344 229.230469 187.316406 229.699219 187.746094 230.082031 C 188.574219 230.792969 189.683594 230.980469 190.722656 231.203125 C 191.644531 231.398438 192.671875 231.613281 193.144531 232.445312 C 193.964844 233.882812 192.578125 235.308594 191.296875 235.808594 C 189.738281 236.425781 187.921875 236.375 186.277344 236.460938 C 177.972656 236.894531 169.675781 236.769531 161.386719 236.082031 C 160.589844 236.015625 159.789062 235.9375 158.992188 235.863281 C 159.359375 225.78125 161.648438 216.148438 165.863281 206.96875 C 167.753906 202.871094 170.003906 198.871094 172.984375 195.449219 C 175.875 192.132812 179.472656 189.378906 183.722656 188.039062 C 187.746094 186.773438 192.3125 186.683594 196.179688 188.515625 C 199.773438 190.214844 202.269531 193.359375 203.832031 196.925781 C 205.433594 200.597656 206.140625 204.617188 206.621094 208.558594 C 207.253906 213.699219 207.703125 218.867188 208.238281 224.015625 C 208.515625 226.75 208.796875 229.488281 209.078125 232.226562 C 209.222656 233.601562 209.363281 234.980469 209.503906 236.355469 C 209.621094 237.484375 209.578125 238.867188 210.257812 239.832031 C 210.914062 240.761719 212.050781 240.992188 213.128906 241.007812 C 214.421875 241.027344 215.730469 240.933594 217.023438 240.832031 C 219.710938 240.625 222.371094 240.246094 225.011719 239.695312 C 226.28125 239.429688 227.539062 239.125 228.792969 238.777344 C 229.003906 238.722656 229.136719 238.585938 229.195312 238.375 C 229.945312 234.035156 225.320312 231.417969 222.882812 228.5625 Z M 220.226562 168.597656 C 219.433594 169.457031 218.472656 170.054688 217.347656 170.386719 C 216.21875 170.695312 215.109375 170.625 214.027344 170.183594 C 212.929688 169.726562 212.003906 169.035156 211.253906 168.117188 C 210.464844 167.15625 209.917969 166.070312 209.621094 164.863281 C 208.867188 161.964844 209.402344 158.898438 210.136719 156.050781 C 210.882812 153.160156 211.925781 150.382812 213.269531 147.714844 C 213.925781 146.417969 214.644531 145.15625 215.425781 143.933594 C 215.828125 143.308594 214.828125 142.730469 214.429688 143.355469 C 212.761719 145.96875 211.390625 148.730469 210.3125 151.636719 C 209.785156 153.0625 209.335938 154.511719 208.964844 155.984375 C 208.5625 157.511719 208.292969 159.0625 208.15625 160.636719 C 208.097656 161.402344 208.097656 162.167969 208.15625 162.933594 C 205.121094 163.238281 202.078125 163.339844 199.027344 163.230469 C 198.269531 163.207031 197.507812 163.164062 196.75 163.113281 C 196.570312 162.519531 196.230469 162.035156 195.734375 161.664062 C 195.109375 161.210938 194.457031 160.796875 193.785156 160.417969 L 191.660156 159.125 L 187.367188 156.5 C 185.074219 155.101562 182.652344 153.777344 180.820312 151.792969 C 180.402344 151.347656 180.035156 150.867188 179.714844 150.347656 C 179.546875 150.070312 179.390625 149.785156 179.253906 149.488281 C 179.230469 149.445312 179.210938 149.398438 179.191406 149.347656 C 179.191406 149.335938 179.152344 149.25 179.144531 149.230469 C 179.101562 149.113281 179.058594 149.003906 179.019531 148.867188 C 178.945312 148.617188 178.886719 148.367188 178.839844 148.113281 C 178.839844 148.058594 178.820312 148.003906 178.8125 147.949219 L 178.800781 147.851562 C 178.785156 147.722656 178.777344 147.589844 178.769531 147.460938 C 178.753906 147.199219 178.753906 146.9375 178.769531 146.675781 C 178.769531 146.558594 178.789062 146.4375 178.800781 146.316406 C 178.800781 146.296875 178.800781 146.273438 178.800781 146.25 L 178.800781 146.222656 C 178.816406 146.148438 178.828125 146.074219 178.839844 145.992188 C 178.886719 145.746094 178.945312 145.503906 179.019531 145.269531 C 179.054688 145.148438 179.097656 145.023438 179.140625 144.90625 L 179.203125 144.753906 C 179.21875 144.722656 179.230469 144.691406 179.246094 144.65625 C 179.351562 144.429688 179.46875 144.214844 179.601562 144.003906 C 179.664062 143.90625 179.734375 143.816406 179.796875 143.722656 C 179.804688 143.714844 179.8125 143.707031 179.816406 143.695312 L 179.835938 143.671875 L 179.96875 143.515625 C 180.132812 143.335938 180.308594 143.171875 180.496094 143.019531 L 180.515625 143 L 180.539062 142.980469 C 180.589844 142.949219 180.640625 142.914062 180.6875 142.882812 C 180.796875 142.8125 180.910156 142.746094 181.027344 142.6875 C 181.070312 142.660156 181.117188 142.640625 181.164062 142.617188 L 181.234375 142.582031 C 181.351562 142.539062 181.464844 142.5 181.585938 142.464844 C 181.707031 142.429688 181.816406 142.402344 181.9375 142.378906 L 182.058594 142.359375 L 182.144531 142.359375 C 182.191406 142.359375 182.242188 142.359375 182.292969 142.34375 C 183.429688 142.257812 184.457031 142.558594 185.570312 142.90625 C 186.6875 143.25 187.8125 143.648438 188.992188 143.785156 C 189.570312 143.867188 190.140625 143.832031 190.699219 143.679688 C 191.261719 143.527344 191.769531 143.273438 192.226562 142.914062 C 192.757812 142.433594 193.214844 141.894531 193.597656 141.289062 C 193.964844 140.769531 194.363281 140.273438 194.796875 139.804688 C 196.5625 137.898438 198.679688 136.53125 201.152344 135.703125 C 203.617188 134.867188 206.128906 134.699219 208.683594 135.203125 C 211.285156 135.71875 213.59375 136.832031 215.613281 138.542969 C 217.601562 140.292969 219.078125 142.398438 220.046875 144.859375 C 221.066406 147.363281 221.628906 150.027344 222.023438 152.6875 C 222.214844 154.003906 222.367188 155.351562 222.507812 156.691406 C 222.695312 158.21875 222.789062 159.753906 222.789062 161.296875 C 222.789062 162.789062 222.546875 164.242188 222.058594 165.65625 C 221.648438 166.761719 221.039062 167.742188 220.226562 168.597656 Z M 183.996094 207.304688 C 182.714844 208.027344 181.125 208.394531 179.671875 208.027344 C 179.105469 207.882812 178.183594 207.605469 178.285156 206.863281 C 178.394531 206.347656 178.613281 205.890625 178.949219 205.484375 C 180.421875 203.578125 183.363281 203.015625 185.566406 203.820312 C 186.015625 203.988281 186.433594 204.210938 186.824219 204.492188 C 186.117188 205.667969 185.175781 206.605469 183.996094 207.304688 Z M 183.996094 207.304688 " fill-opacity="1" fill-rule="nonzero"/></g><path stroke-linecap="butt" transform="matrix(0.752573, 0.00414913, -0.00413488, 0.749989, 0.00000447506, 187.125002)" fill="none" stroke-linejoin="miter" d="M -0.00000596163 -0.00000278323 L 90.694062 -0.00173783 " stroke="rgb(21.569824%, 20.388794%, 22.749329%)" stroke-width="1" stroke-opacity="1" stroke-miterlimit="4"/><path stroke-linecap="butt" transform="matrix(0.747267, 0, 0, 0.75, 306.984184, 187.499988)" fill="none" stroke-linejoin="miter" d="M 0.000256212 0.0000164167 L 94.349239 0.0000164167 " stroke="rgb(21.569824%, 20.388794%, 22.749329%)" stroke-width="1" stroke-opacity="1" stroke-miterlimit="4"/><g fill="rgb(21.569824%, 20.388794%, 22.749329%)" fill-opacity="1"><g transform="translate(105.113416, 185.890925)"><g><path d="M 0.6875 -18.503906 C 0.6875 -18.503906 2.261719 -16.089844 1.75 -12.355469 C 1.257812 -8.75 -1.214844 -2.625 -9.683594 -3.78125 C -18.023438 -4.917969 -18.800781 -11.976562 -18.375 -15.101562 C -17.855469 -18.898438 -16.058594 -20.785156 -16.058594 -20.785156 L -16.765625 -20.882812 C -16.765625 -20.882812 -18.386719 -18.839844 -18.890625 -15.171875 C -19.679688 -9.375 -17.308594 -3.671875 -9.839844 -2.652344 C -1.242188 -1.480469 1.707031 -7.933594 2.257812 -11.992188 C 2.808594 -16.015625 1.394531 -18.40625 1.394531 -18.40625 Z M 0.6875 -18.503906 "/></g></g></g><g fill="rgb(21.569824%, 20.388794%, 22.749329%)" fill-opacity="1"><g transform="translate(107.725802, 167.866637)"><g><path d="M 0.378906 -2.714844 L -18.515625 -8.921875 L -18.871094 -7.839844 L 0.546875 -1.460938 L 3.804688 -11.371094 L 3.277344 -11.542969 Z M 0.378906 -2.714844 "/></g></g></g><g fill="rgb(21.569824%, 20.388794%, 22.749329%)" fill-opacity="1"><g transform="translate(111.731484, 156.179487)"><g><path d="M -19.785156 -11.417969 L -19.96875 -11 L -23.21875 -16.175781 L -22.742188 -17.246094 Z M 0.824219 -1.695312 L 1.285156 -2.734375 L -17.394531 -11.03125 L -17.859375 -9.992188 Z M 0.824219 -1.695312 "/></g></g></g><g fill="rgb(21.569824%, 20.388794%, 22.749329%)" fill-opacity="1"><g transform="translate(112.763034, 152.413005)"><g><path d="M -7.769531 -26.144531 L -8.042969 -25.703125 L 7.839844 -15.863281 L -16.78125 -12.347656 L -16.832031 -12.261719 L 0.875 -1.292969 L 1.152344 -1.734375 L -14.566406 -11.472656 L 10.023438 -15.007812 L 10.074219 -15.089844 Z M -7.769531 -26.144531 "/></g></g></g><g fill="rgb(21.569824%, 20.388794%, 22.749329%)" fill-opacity="1"><g transform="translate(122.922817, 136.811568)"><g><path d="M 1.253906 -1.410156 L 1.976562 -2.285156 L -13.769531 -15.320312 L -14.492188 -14.445312 Z M 1.253906 -1.410156 "/></g></g></g><g fill="rgb(21.569824%, 20.388794%, 22.749329%)" fill-opacity="1"><g transform="translate(124.935781, 133.462362)"><g><path d="M 12.34375 -13.800781 C 12.34375 -13.800781 12.011719 -10.941406 9.238281 -8.390625 C 6.554688 -5.929688 0.742188 -2.796875 -5.039062 -9.09375 C -10.730469 -15.292969 -6.820312 -21.222656 -4.5 -23.351562 C -1.675781 -25.945312 0.914062 -26.25 0.914062 -26.25 L 0.429688 -26.777344 C 0.429688 -26.777344 -2.121094 -26.242188 -4.851562 -23.738281 C -9.160156 -19.78125 -10.976562 -13.878906 -5.878906 -8.324219 C -0.0078125 -1.933594 6.378906 -5.019531 9.394531 -7.785156 C 12.386719 -10.535156 12.824219 -13.273438 12.824219 -13.273438 Z M 12.34375 -13.800781 "/></g></g></g><g fill="rgb(21.569824%, 20.388794%, 22.749329%)" fill-opacity="1"><g transform="translate(137.962924, 121.149223)"><g><path d="M 1.003906 -0.539062 L 1.625 -0.890625 L 0.738281 -9.824219 L 8.691406 -14.378906 L 15.835938 -9.035156 L 16.933594 -9.664062 L -1.15625 -23.269531 L -1.296875 -23.1875 Z M 0.664062 -10.417969 L -0.433594 -21.285156 L 8.21875 -14.746094 Z M 0.664062 -10.417969 "/></g></g></g><g fill="rgb(21.569824%, 20.388794%, 22.749329%)" fill-opacity="1"><g transform="translate(160.976777, 108.960857)"><g><path d="M 14.160156 -23.746094 L 9.78125 -3.722656 L -1.847656 -20.425781 L -3.085938 -20.167969 L 9.859375 -1.582031 L 10.050781 -1.621094 L 14.890625 -23.898438 Z M 14.160156 -23.746094 "/></g></g></g><g fill="rgb(21.569824%, 20.388794%, 22.749329%)" fill-opacity="1"><g transform="translate(179.510777, 105.305092)"><g><path d="M 11.523438 -20.074219 L 11.511719 -20.59375 L 1.277344 -20.402344 L 1.179688 -20.402344 L 1.558594 0.00390625 L 1.65625 0 L 11.894531 -0.1875 L 11.882812 -0.707031 L 2.6875 -0.539062 L 2.503906 -10.414062 L 10.820312 -10.570312 L 10.8125 -11.089844 L 2.496094 -10.933594 L 2.328125 -19.902344 Z M 11.523438 -20.074219 "/></g></g></g><g fill="rgb(21.569824%, 20.388794%, 22.749329%)" fill-opacity="1"><g transform="translate(191.347424, 104.80643)"><g><path d="M 18.789062 -17.796875 L 4.070312 -19.996094 L 3.992188 -19.480469 L 10.773438 -18.46875 L 7.832031 1.234375 L 8.988281 1.40625 L 11.933594 -18.292969 L 18.714844 -17.28125 Z M 18.789062 -17.796875 "/></g></g></g><g fill="rgb(21.569824%, 20.388794%, 22.749329%)" fill-opacity="1"><g transform="translate(206.758875, 107.140975)"><g><path d="M 17.460938 -15.195312 L 17.621094 -15.6875 L 7.890625 -18.859375 L 7.796875 -18.890625 L 1.472656 0.515625 L 1.566406 0.542969 L 11.296875 3.714844 L 11.460938 3.222656 L 2.714844 0.371094 L 5.777344 -9.019531 L 13.6875 -6.441406 L 13.847656 -6.9375 L 5.9375 -9.515625 L 8.714844 -18.042969 Z M 17.460938 -15.195312 "/></g></g></g><g fill="rgb(21.569824%, 20.388794%, 22.749329%)" fill-opacity="1"><g transform="translate(218.108443, 110.5522)"><g><path d="M 14.027344 7.398438 L 11.726562 -4.691406 C 14.007812 -3.867188 17.777344 -3.21875 19.714844 -6.933594 C 21.792969 -10.910156 17.757812 -13.714844 16.289062 -14.480469 L 10.816406 -17.339844 L 1.351562 0.78125 L 2.359375 1.304688 L 6.769531 -7.132812 L 9.878906 -5.507812 C 9.996094 -5.449219 10.167969 -5.359375 10.425781 -5.222656 L 12.703125 6.707031 Z M 9.628906 -6.226562 L 7.007812 -7.59375 L 11.582031 -16.351562 L 14.953125 -14.59375 C 17.890625 -13.058594 20.425781 -10.816406 18.515625 -7.160156 C 16.828125 -3.933594 13 -4.464844 9.628906 -6.226562 Z M 9.628906 -6.226562 "/></g></g></g><g fill="rgb(21.569824%, 20.388794%, 22.749329%)" fill-opacity="1"><g transform="translate(232.037766, 118.159688)"><g><path d="M 1.515625 1.121094 L 2.453125 1.765625 L 14.03125 -15.082031 L 13.09375 -15.722656 Z M 1.515625 1.121094 "/></g></g></g><g fill="rgb(21.569824%, 20.388794%, 22.749329%)" fill-opacity="1"><g transform="translate(235.555033, 119.860971)"><g><path d="M 27.128906 -2.847656 L 26.742188 -3.199219 L 14.15625 10.613281 L 15.210938 -14.234375 L 15.140625 -14.300781 L 1.109375 1.097656 L 1.492188 1.449219 L 13.949219 -12.21875 L 12.914062 12.605469 L 12.988281 12.667969 Z M 27.128906 -2.847656 "/></g></g></g><g fill="rgb(21.569824%, 20.388794%, 22.749329%)" fill-opacity="1"><g transform="translate(248.999833, 131.763804)"><g><path d="M 0.625 0.953125 L 1.035156 1.539062 L 9.851562 -0.136719 L 15.09375 7.378906 L 10.40625 14.96875 L 11.128906 16.011719 L 23.074219 -3.21875 L 22.980469 -3.351562 Z M 10.433594 -0.265625 L 21.164062 -2.324219 L 15.417969 6.878906 Z M 10.433594 -0.265625 "/></g></g></g><g fill="rgb(21.569824%, 20.388794%, 22.749329%)" fill-opacity="1"><g transform="translate(259.790517, 147.237971)"><g><path d="M 6.148438 14.617188 L 12.039062 3.8125 C 13.28125 5.898438 15.78125 8.789062 19.640625 7.144531 C 23.765625 5.390625 22.425781 0.664062 21.777344 -0.863281 L 19.359375 -6.542969 L 0.550781 1.460938 L 0.996094 2.507812 L 9.757812 -1.222656 L 11.132812 2.007812 C 11.183594 2.128906 11.257812 2.308594 11.375 2.578125 L 5.566406 13.242188 Z M 11.394531 1.296875 L 10.234375 -1.425781 L 19.328125 -5.292969 L 20.816406 -1.792969 C 22.113281 1.253906 22.652344 4.59375 18.855469 6.210938 C 15.503906 7.636719 12.882812 4.792969 11.394531 1.296875 Z M 11.394531 1.296875 "/></g></g></g><g fill="rgb(21.569824%, 20.388794%, 22.749329%)" fill-opacity="1"><g transform="translate(265.732206, 161.956158)"><g><path d="M 0.460938 1.828125 L 0.777344 2.921875 L 20.414062 -2.757812 L 20.097656 -3.847656 Z M 0.460938 1.828125 "/></g></g></g><g fill="rgb(21.569824%, 20.388794%, 22.749329%)" fill-opacity="1"><g transform="translate(267.410139, 165.456266)"><g><path d="M 0.125 1.128906 L 0.226562 1.839844 L 8.847656 4.332031 L 10.128906 13.40625 L 2.515625 18.058594 L 2.691406 19.3125 L 22.039062 7.554688 L 22.015625 7.394531 Z M 9.425781 4.480469 L 19.929688 7.492188 L 10.644531 13.101562 Z M 9.425781 4.480469 "/></g></g></g><g fill="rgb(21.569824%, 20.388794%, 22.749329%)" fill-opacity="1"><g transform="translate(156.271004, 292.04002)"><g><path d="M 18.394531 2.128906 C 18.394531 2.128906 15.867188 3.511719 12.179688 2.710938 C 8.625 1.9375 2.710938 -1.007812 4.527344 -9.359375 C 6.3125 -17.585938 13.410156 -17.808594 16.488281 -17.136719 C 20.238281 -16.324219 21.976562 -14.382812 21.976562 -14.382812 L 22.128906 -15.082031 C 22.128906 -15.082031 20.21875 -16.859375 16.597656 -17.648438 C 10.882812 -18.886719 5.011719 -16.96875 3.414062 -9.601562 C 1.574219 -1.121094 7.777344 2.320312 11.777344 3.1875 C 15.75 4.050781 18.242188 2.828125 18.242188 2.828125 Z M 18.394531 2.128906 "/></g></g></g><g fill="rgb(21.569824%, 20.388794%, 22.749329%)" fill-opacity="1"><g transform="translate(177.591165, 296.39143)"><g><path d="M 16.496094 -20.304688 L 16.445312 -7.730469 C 16.417969 -1.523438 13.226562 -0.171875 9.523438 -0.1875 C 4.386719 -0.207031 2.609375 -2.199219 2.632812 -7.496094 L 2.6875 -20.363281 L 1.550781 -20.371094 L 1.496094 -7.5 C 1.464844 -0.902344 4.417969 0.636719 9.0625 0.65625 C 14.261719 0.679688 16.972656 -2.074219 16.996094 -7.433594 L 17.050781 -20.304688 Z M 16.496094 -20.304688 "/></g></g></g><g fill="rgb(21.569824%, 20.388794%, 22.749329%)" fill-opacity="1"><g transform="translate(197.851134, 296.17979)"><g><path d="M 1.546875 -0.21875 L 2.664062 -0.425781 L -1.035156 -20.527344 L -2.152344 -20.320312 Z M 2.945312 -11.644531 L 10.28125 -22.609375 L 9.542969 -22.472656 L 1.871094 -11.015625 L 12.636719 -2.257812 L 14.171875 -2.542969 Z M 2.945312 -11.644531 "/></g></g></g><g fill="rgb(21.569824%, 20.388794%, 22.749329%)" fill-opacity="1"><g transform="translate(214.084025, 292.833587)"><g><path d="M 1.824219 -0.484375 L 2.910156 -0.816406 L -3.019531 -20.375 L -4.109375 -20.046875 Z M 1.824219 -0.484375 "/></g></g></g></svg>